<svg width="64" height="61" viewBox="0 0 64 61" fill="none" xmlns="http://www.w3.org/2000/svg">
<path opacity="0.5" d="M63.9844 0.787639L48.3256 55.6323C48.246 55.8813 47.9275 55.956 47.7417 55.7817L37.2583 45.948L45.1143 18.4634C45.1939 18.2145 44.955 17.9904 44.6896 18.0651L15.389 25.4341L4.95868 15.6502C4.7729 15.476 4.85252 15.1772 5.11792 15.1025L63.5598 0.389312C63.8252 0.339521 64.0641 0.56358 63.9844 0.787639Z" fill="#00B37E"/>
<path opacity="0.5" d="M37.2578 45.9475L33.2236 60.138C33.144 60.3869 32.8255 60.4616 32.6397 60.2873L0.101251 29.7904C-0.0845318 29.6161 -0.00491108 29.3174 0.260493 29.2427L15.3885 25.4337L37.2578 45.9475Z" fill="#00B37E"/>
<path d="M45.1129 18.4629L37.257 45.9475L15.3877 25.4337L44.6883 18.0646C44.9537 17.9899 45.1926 18.214 45.1129 18.4629Z" fill="#00B37E"/>
</svg>
